<?xml version="1.0" encoding="UTF-8" standalone="no"?>
<!DOCTYPE svg PUBLIC "-//W3C//DTD SVG 1.1//EN"
 "http://www.w3.org/Graphics/SVG/1.1/DTD/svg11.dtd">
<!-- Generated by graphviz version 2.36.0 (20140111.2315)
 -->
<!-- Title: controllers_diagram Pages: 1 -->
<svg width="673pt" height="654pt"
 viewBox="0.00 0.00 673.00 654.00" xmlns="http://www.w3.org/2000/svg" xmlns:xlink="http://www.w3.org/1999/xlink">
<g id="graph0" class="graph" transform="scale(1 1) rotate(0) translate(4 650)">
<title>controllers_diagram</title>
<polygon fill="none" stroke="none" points="-4,4 -4,-650 669,-650 669,4 -4,4"/>
<!-- _diagram_info -->
<g id="node1" class="node"><title>_diagram_info</title>
<text text-anchor="start" x="386" y="-81.6" font-family="Times,serif" font-size="13.00">Controllers diagram</text>
<text text-anchor="start" x="386" y="-67.6" font-family="Times,serif" font-size="13.00">Date: Apr 20 2017 &#45; 04:25</text>
<text text-anchor="start" x="386" y="-53.6" font-family="Times,serif" font-size="13.00">Migration version: 20170414202612</text>
<text text-anchor="start" x="386" y="-39.6" font-family="Times,serif" font-size="13.00">Generated by RailRoady 1.5.2</text>
<text text-anchor="start" x="386" y="-25.6" font-family="Times,serif" font-size="13.00">http://railroady.prestonlee.com</text>
</g>
<!-- ApplicationController -->
<g id="node2" class="node"><title>ApplicationController</title>
<path fill="none" stroke="black" d="M156,-396.5C156,-396.5 326,-396.5 326,-396.5 332,-396.5 338,-402.5 338,-408.5 338,-408.5 338,-537.5 338,-537.5 338,-543.5 332,-549.5 326,-549.5 326,-549.5 156,-549.5 156,-549.5 150,-549.5 144,-543.5 144,-537.5 144,-537.5 144,-408.5 144,-408.5 144,-402.5 150,-396.5 156,-396.5"/>
<text text-anchor="middle" x="241" y="-534.3" font-family="Times,serif" font-size="14.00">ApplicationController</text>
<polyline fill="none" stroke="black" points="144,-526.5 338,-526.5 "/>
<polyline fill="none" stroke="black" points="144,-502.5 338,-502.5 "/>
<text text-anchor="start" x="152" y="-487.3" font-family="Times,serif" font-size="14.00">configure_permitted_parameters</text>
<text text-anchor="start" x="152" y="-472.3" font-family="Times,serif" font-size="14.00">index</text>
<polyline fill="none" stroke="black" points="144,-464.5 338,-464.5 "/>
<text text-anchor="start" x="152" y="-449.3" font-family="Times,serif" font-size="14.00">_layout</text>
<text text-anchor="start" x="152" y="-434.3" font-family="Times,serif" font-size="14.00">doSubLogout</text>
<text text-anchor="start" x="152" y="-419.3" font-family="Times,serif" font-size="14.00">getSubLoggedUser</text>
<text text-anchor="start" x="152" y="-404.3" font-family="Times,serif" font-size="14.00">trySubLogin</text>
</g>
<!-- NotificationsController -->
<g id="node3" class="node"><title>NotificationsController</title>
<path fill="none" stroke="black" d="M534,-126.5C534,-126.5 653,-126.5 653,-126.5 659,-126.5 665,-132.5 665,-138.5 665,-138.5 665,-222.5 665,-222.5 665,-228.5 659,-234.5 653,-234.5 653,-234.5 534,-234.5 534,-234.5 528,-234.5 522,-228.5 522,-222.5 522,-222.5 522,-138.5 522,-138.5 522,-132.5 528,-126.5 534,-126.5"/>
<text text-anchor="middle" x="593.5" y="-219.3" font-family="Times,serif" font-size="14.00">NotificationsController</text>
<polyline fill="none" stroke="black" points="522,-211.5 665,-211.5 "/>
<text text-anchor="start" x="530" y="-196.3" font-family="Times,serif" font-size="14.00">index</text>
<polyline fill="none" stroke="black" points="522,-188.5 665,-188.5 "/>
<polyline fill="none" stroke="black" points="522,-164.5 665,-164.5 "/>
<text text-anchor="start" x="530" y="-149.3" font-family="Times,serif" font-size="14.00">_layout</text>
<text text-anchor="start" x="530" y="-134.3" font-family="Times,serif" font-size="14.00">notification_params</text>
</g>
<!-- ChildrenController -->
<g id="node4" class="node"><title>ChildrenController</title>
<path fill="none" stroke="black" d="M516,-432.5C516,-432.5 611,-432.5 611,-432.5 617,-432.5 623,-438.5 623,-444.5 623,-444.5 623,-633.5 623,-633.5 623,-639.5 617,-645.5 611,-645.5 611,-645.5 516,-645.5 516,-645.5 510,-645.5 504,-639.5 504,-633.5 504,-633.5 504,-444.5 504,-444.5 504,-438.5 510,-432.5 516,-432.5"/>
<text text-anchor="middle" x="563.5" y="-630.3" font-family="Times,serif" font-size="14.00">ChildrenController</text>
<polyline fill="none" stroke="black" points="504,-622.5 623,-622.5 "/>
<text text-anchor="start" x="512" y="-607.3" font-family="Times,serif" font-size="14.00">create</text>
<text text-anchor="start" x="512" y="-592.3" font-family="Times,serif" font-size="14.00">destroy</text>
<text text-anchor="start" x="512" y="-577.3" font-family="Times,serif" font-size="14.00">edit</text>
<text text-anchor="start" x="512" y="-562.3" font-family="Times,serif" font-size="14.00">index</text>
<text text-anchor="start" x="512" y="-547.3" font-family="Times,serif" font-size="14.00">new</text>
<text text-anchor="start" x="512" y="-532.3" font-family="Times,serif" font-size="14.00">show</text>
<text text-anchor="start" x="512" y="-517.3" font-family="Times,serif" font-size="14.00">update</text>
<polyline fill="none" stroke="black" points="504,-509.5 623,-509.5 "/>
<polyline fill="none" stroke="black" points="504,-485.5 623,-485.5 "/>
<text text-anchor="start" x="512" y="-470.3" font-family="Times,serif" font-size="14.00">_layout</text>
<text text-anchor="start" x="512" y="-455.3" font-family="Times,serif" font-size="14.00">child_params</text>
<text text-anchor="start" x="512" y="-440.3" font-family="Times,serif" font-size="14.00">set_child</text>
</g>
<!-- ApprovalController -->
<g id="node5" class="node"><title>ApprovalController</title>
<path fill="none" stroke="black" d="M534,-270.5C534,-270.5 633,-270.5 633,-270.5 639,-270.5 645,-276.5 645,-282.5 645,-282.5 645,-351.5 645,-351.5 645,-357.5 639,-363.5 633,-363.5 633,-363.5 534,-363.5 534,-363.5 528,-363.5 522,-357.5 522,-351.5 522,-351.5 522,-282.5 522,-282.5 522,-276.5 528,-270.5 534,-270.5"/>
<text text-anchor="middle" x="583.5" y="-348.3" font-family="Times,serif" font-size="14.00">ApprovalController</text>
<polyline fill="none" stroke="black" points="522,-340.5 645,-340.5 "/>
<text text-anchor="start" x="530" y="-325.3" font-family="Times,serif" font-size="14.00">index</text>
<polyline fill="none" stroke="black" points="522,-317.5 645,-317.5 "/>
<polyline fill="none" stroke="black" points="522,-293.5 645,-293.5 "/>
<text text-anchor="start" x="530" y="-278.3" font-family="Times,serif" font-size="14.00">_layout</text>
</g>
<!-- SubloginController -->
<g id="node6" class="node"><title>SubloginController</title>
<path fill="none" stroke="black" d="M66,-0.5C66,-0.5 168,-0.5 168,-0.5 174,-0.5 180,-6.5 180,-12.5 180,-12.5 180,-126.5 180,-126.5 180,-132.5 174,-138.5 168,-138.5 168,-138.5 66,-138.5 66,-138.5 60,-138.5 54,-132.5 54,-126.5 54,-126.5 54,-12.5 54,-12.5 54,-6.5 60,-0.5 66,-0.5"/>
<text text-anchor="middle" x="117" y="-123.3" font-family="Times,serif" font-size="14.00">SubloginController</text>
<polyline fill="none" stroke="black" points="54,-115.5 180,-115.5 "/>
<text text-anchor="start" x="62" y="-100.3" font-family="Times,serif" font-size="14.00">autoLoginIfPossible</text>
<text text-anchor="start" x="62" y="-85.3" font-family="Times,serif" font-size="14.00">chgPin</text>
<text text-anchor="start" x="62" y="-70.3" font-family="Times,serif" font-size="14.00">rstPin</text>
<text text-anchor="start" x="62" y="-55.3" font-family="Times,serif" font-size="14.00">sublogin</text>
<polyline fill="none" stroke="black" points="54,-47.5 180,-47.5 "/>
<polyline fill="none" stroke="black" points="54,-23.5 180,-23.5 "/>
<text text-anchor="start" x="62" y="-8.3" font-family="Times,serif" font-size="14.00">_layout</text>
</g>
<!-- ChoresController -->
<g id="node7" class="node"><title>ChoresController</title>
<path fill="none" stroke="black" d="M390,-126.5C390,-126.5 476,-126.5 476,-126.5 482,-126.5 488,-132.5 488,-138.5 488,-138.5 488,-387.5 488,-387.5 488,-393.5 482,-399.5 476,-399.5 476,-399.5 390,-399.5 390,-399.5 384,-399.5 378,-393.5 378,-387.5 378,-387.5 378,-138.5 378,-138.5 378,-132.5 384,-126.5 390,-126.5"/>
<text text-anchor="middle" x="433" y="-384.3" font-family="Times,serif" font-size="14.00">ChoresController</text>
<polyline fill="none" stroke="black" points="378,-376.5 488,-376.5 "/>
<text text-anchor="start" x="386" y="-361.3" font-family="Times,serif" font-size="14.00">associateChild</text>
<text text-anchor="start" x="386" y="-346.3" font-family="Times,serif" font-size="14.00">complete</text>
<text text-anchor="start" x="386" y="-331.3" font-family="Times,serif" font-size="14.00">create</text>
<text text-anchor="start" x="386" y="-316.3" font-family="Times,serif" font-size="14.00">deny</text>
<text text-anchor="start" x="386" y="-301.3" font-family="Times,serif" font-size="14.00">destroy</text>
<text text-anchor="start" x="386" y="-286.3" font-family="Times,serif" font-size="14.00">edit</text>
<text text-anchor="start" x="386" y="-271.3" font-family="Times,serif" font-size="14.00">index</text>
<text text-anchor="start" x="386" y="-256.3" font-family="Times,serif" font-size="14.00">new</text>
<text text-anchor="start" x="386" y="-241.3" font-family="Times,serif" font-size="14.00">pending</text>
<text text-anchor="start" x="386" y="-226.3" font-family="Times,serif" font-size="14.00">show</text>
<text text-anchor="start" x="386" y="-211.3" font-family="Times,serif" font-size="14.00">update</text>
<polyline fill="none" stroke="black" points="378,-203.5 488,-203.5 "/>
<polyline fill="none" stroke="black" points="378,-179.5 488,-179.5 "/>
<text text-anchor="start" x="386" y="-164.3" font-family="Times,serif" font-size="14.00">_layout</text>
<text text-anchor="start" x="386" y="-149.3" font-family="Times,serif" font-size="14.00">chore_params</text>
<text text-anchor="start" x="386" y="-134.3" font-family="Times,serif" font-size="14.00">set_chore</text>
</g>
<!-- RewardsController -->
<g id="node8" class="node"><title>RewardsController</title>
<path fill="none" stroke="black" d="M228,-54.5C228,-54.5 323,-54.5 323,-54.5 329,-54.5 335,-60.5 335,-66.5 335,-66.5 335,-345.5 335,-345.5 335,-351.5 329,-357.5 323,-357.5 323,-357.5 228,-357.5 228,-357.5 222,-357.5 216,-351.5 216,-345.5 216,-345.5 216,-66.5 216,-66.5 216,-60.5 222,-54.5 228,-54.5"/>
<text text-anchor="middle" x="275.5" y="-342.3" font-family="Times,serif" font-size="14.00">RewardsController</text>
<polyline fill="none" stroke="black" points="216,-334.5 335,-334.5 "/>
<text text-anchor="start" x="224" y="-319.3" font-family="Times,serif" font-size="14.00">approve</text>
<text text-anchor="start" x="224" y="-304.3" font-family="Times,serif" font-size="14.00">create</text>
<text text-anchor="start" x="224" y="-289.3" font-family="Times,serif" font-size="14.00">deny</text>
<text text-anchor="start" x="224" y="-274.3" font-family="Times,serif" font-size="14.00">destroy</text>
<text text-anchor="start" x="224" y="-259.3" font-family="Times,serif" font-size="14.00">edit</text>
<text text-anchor="start" x="224" y="-244.3" font-family="Times,serif" font-size="14.00">index</text>
<text text-anchor="start" x="224" y="-229.3" font-family="Times,serif" font-size="14.00">new</text>
<text text-anchor="start" x="224" y="-214.3" font-family="Times,serif" font-size="14.00">pending</text>
<text text-anchor="start" x="224" y="-199.3" font-family="Times,serif" font-size="14.00">purchase</text>
<text text-anchor="start" x="224" y="-184.3" font-family="Times,serif" font-size="14.00">redeem</text>
<text text-anchor="start" x="224" y="-169.3" font-family="Times,serif" font-size="14.00">show</text>
<text text-anchor="start" x="224" y="-154.3" font-family="Times,serif" font-size="14.00">store</text>
<text text-anchor="start" x="224" y="-139.3" font-family="Times,serif" font-size="14.00">update</text>
<polyline fill="none" stroke="black" points="216,-131.5 335,-131.5 "/>
<polyline fill="none" stroke="black" points="216,-107.5 335,-107.5 "/>
<text text-anchor="start" x="224" y="-92.3" font-family="Times,serif" font-size="14.00">_layout</text>
<text text-anchor="start" x="224" y="-77.3" font-family="Times,serif" font-size="14.00">reward_params</text>
<text text-anchor="start" x="224" y="-62.3" font-family="Times,serif" font-size="14.00">set_reward</text>
</g>
<!-- DefaultController -->
<g id="node9" class="node"><title>DefaultController</title>
<path fill="none" stroke="black" d="M84,-180.5C84,-180.5 173,-180.5 173,-180.5 179,-180.5 185,-186.5 185,-192.5 185,-192.5 185,-351.5 185,-351.5 185,-357.5 179,-363.5 173,-363.5 173,-363.5 84,-363.5 84,-363.5 78,-363.5 72,-357.5 72,-351.5 72,-351.5 72,-192.5 72,-192.5 72,-186.5 78,-180.5 84,-180.5"/>
<text text-anchor="middle" x="128.5" y="-348.3" font-family="Times,serif" font-size="14.00">DefaultController</text>
<polyline fill="none" stroke="black" points="72,-340.5 185,-340.5 "/>
<text text-anchor="start" x="80" y="-325.3" font-family="Times,serif" font-size="14.00">account_door</text>
<text text-anchor="start" x="80" y="-310.3" font-family="Times,serif" font-size="14.00">change</text>
<text text-anchor="start" x="80" y="-295.3" font-family="Times,serif" font-size="14.00">child_door</text>
<text text-anchor="start" x="80" y="-280.3" font-family="Times,serif" font-size="14.00">do_account</text>
<text text-anchor="start" x="80" y="-265.3" font-family="Times,serif" font-size="14.00">do_change</text>
<text text-anchor="start" x="80" y="-250.3" font-family="Times,serif" font-size="14.00">do_child</text>
<text text-anchor="start" x="80" y="-235.3" font-family="Times,serif" font-size="14.00">index</text>
<polyline fill="none" stroke="black" points="72,-227.5 185,-227.5 "/>
<polyline fill="none" stroke="black" points="72,-203.5 185,-203.5 "/>
<text text-anchor="start" x="80" y="-188.3" font-family="Times,serif" font-size="14.00">_layout</text>
</g>
<!-- ParentController -->
<g id="node10" class="node"><title>ParentController</title>
<path fill="none" stroke="black" d="M12,-504.5C12,-504.5 95,-504.5 95,-504.5 101,-504.5 107,-510.5 107,-516.5 107,-516.5 107,-586.5 107,-586.5 107,-592.5 101,-598.5 95,-598.5 95,-598.5 12,-598.5 12,-598.5 6,-598.5 0,-592.5 0,-586.5 0,-586.5 0,-516.5 0,-516.5 0,-510.5 6,-504.5 12,-504.5"/>
<text text-anchor="middle" x="53.5" y="-583.3" font-family="Times,serif" font-size="14.00">ParentController</text>
<polyline fill="none" stroke="black" points="0,-575.5 107,-575.5 "/>
<polyline fill="none" stroke="black" points="0,-551.5 107,-551.5 "/>
<polyline fill="none" stroke="black" points="0,-527.5 107,-527.5 "/>
<text text-anchor="start" x="8" y="-512.3" font-family="Times,serif" font-size="14.00">_layout</text>
</g>
</g>
</svg>
