<?xml version="1.0" encoding="UTF-8" standalone="no"?>
<!DOCTYPE svg PUBLIC "-//W3C//DTD SVG 1.1//EN"
 "http://www.w3.org/Graphics/SVG/1.1/DTD/svg11.dtd">
<!-- Generated by graphviz version 2.36.0 (20140111.2315)
 -->
<!-- Title: models_diagram Pages: 1 -->
<svg width="721pt" height="230pt"
 viewBox="0.00 0.00 721.00 230.00" xmlns="http://www.w3.org/2000/svg" xmlns:xlink="http://www.w3.org/1999/xlink">
<g id="graph0" class="graph" transform="scale(1 1) rotate(0) translate(4 226)">
<title>models_diagram</title>
<polygon fill="none" stroke="none" points="-4,4 -4,-226 717,-226 717,4 -4,4"/>
<!-- _diagram_info -->
<g id="node1" class="node"><title>_diagram_info</title>
<text text-anchor="start" x="8" y="-207.6" font-family="Times,serif" font-size="13.00">Models diagram</text>
<text text-anchor="start" x="8" y="-193.6" font-family="Times,serif" font-size="13.00">Date: Apr 20 2017 &#45; 04:25</text>
<text text-anchor="start" x="8" y="-179.6" font-family="Times,serif" font-size="13.00">Migration version: 20170414202612</text>
<text text-anchor="start" x="8" y="-165.6" font-family="Times,serif" font-size="13.00">Generated by RailRoady 1.5.2</text>
<text text-anchor="start" x="8" y="-151.6" font-family="Times,serif" font-size="13.00">http://railroady.prestonlee.com</text>
</g>
<!-- Parent -->
<g id="node2" class="node"><title>Parent</title>
<ellipse fill="none" stroke="black" cx="265" cy="-183" rx="33.2209" ry="18"/>
<text text-anchor="middle" x="265" y="-179.3" font-family="Times,serif" font-size="14.00">Parent</text>
</g>
<!-- Child -->
<g id="node4" class="node"><title>Child</title>
<ellipse fill="none" stroke="black" cx="178" cy="-90" rx="30.3206" ry="18"/>
<text text-anchor="middle" x="178" y="-86.3" font-family="Times,serif" font-size="14.00">Child</text>
</g>
<!-- Parent&#45;&gt;Child -->
<g id="edge1" class="edge"><title>Parent&#45;&gt;Child</title>
<path fill="none" stroke="#0c0725" d="M244.609,-160.671C231.035,-146.473 213.231,-127.851 199.445,-113.431"/>
<ellipse fill="none" stroke="#0c0725" cx="247.477" cy="-163.672" rx="4.00002" ry="4.00002"/>
<polygon fill="#0c0725" stroke="#0c0725" points="199.163,-113.136 195.505,-102.798 195.707,-109.521 192.252,-105.907 192.252,-105.907 192.252,-105.907 195.707,-109.521 188.999,-109.017 199.163,-113.136 199.163,-113.136"/>
</g>
<!-- Reward -->
<g id="node6" class="node"><title>Reward</title>
<ellipse fill="none" stroke="black" cx="265" cy="-90" rx="38.0212" ry="18"/>
<text text-anchor="middle" x="265" y="-86.3" font-family="Times,serif" font-size="14.00">Reward</text>
</g>
<!-- Parent&#45;&gt;Reward -->
<g id="edge3" class="edge"><title>Parent&#45;&gt;Reward</title>
<path fill="none" stroke="#9967a5" d="M265,-156.729C265,-144.725 265,-130.362 265,-118.129"/>
<ellipse fill="none" stroke="#9967a5" cx="265" cy="-160.884" rx="4" ry="4"/>
<polygon fill="#9967a5" stroke="#9967a5" points="265,-118.04 269.5,-108.04 265,-113.04 265,-108.04 265,-108.04 265,-108.04 265,-113.04 260.5,-108.04 265,-118.04 265,-118.04"/>
</g>
<!-- Chore -->
<g id="node7" class="node"><title>Chore</title>
<ellipse fill="none" stroke="black" cx="254" cy="-18" rx="32.2457" ry="18"/>
<text text-anchor="middle" x="254" y="-14.3" font-family="Times,serif" font-size="14.00">Chore</text>
</g>
<!-- Parent&#45;&gt;Chore -->
<g id="edge2" class="edge"><title>Parent&#45;&gt;Chore</title>
<path fill="none" stroke="#bfd771" d="M285.152,-160.478C303.394,-138.258 325.495,-102.613 312,-72 306.037,-58.4733 294.728,-46.9009 283.668,-38.0524"/>
<ellipse fill="none" stroke="#bfd771" cx="282.494" cy="-163.602" rx="4.00002" ry="4.00002"/>
<polygon fill="#bfd771" stroke="#bfd771" points="283.359,-37.8207 278.048,-28.2265 279.355,-34.8251 275.352,-31.8295 275.352,-31.8295 275.352,-31.8295 279.355,-34.8251 272.656,-35.4325 283.359,-37.8207 283.359,-37.8207"/>
</g>
<!-- Notification -->
<g id="node3" class="node"><title>Notification</title>
<ellipse fill="none" stroke="black" cx="369" cy="-183" rx="52.9443" ry="18"/>
<text text-anchor="middle" x="369" y="-179.3" font-family="Times,serif" font-size="14.00">Notification</text>
</g>
<!-- Child&#45;&gt;Chore -->
<g id="edge4" class="edge"><title>Child&#45;&gt;Chore</title>
<path fill="none" stroke="#ec68c9" d="M199.835,-68.8892C209.447,-60.0359 220.755,-49.6203 230.546,-40.6024"/>
<ellipse fill="none" stroke="#ec68c9" cx="196.689" cy="-71.786" rx="4.00002" ry="4.00002"/>
<polygon fill="#ec68c9" stroke="#ec68c9" points="230.656,-40.5011 241.06,-37.0363 234.334,-37.1137 238.011,-33.7263 238.011,-33.7263 238.011,-33.7263 234.334,-37.1137 234.963,-30.4163 230.656,-40.5011 230.656,-40.5011"/>
</g>
<!-- ApplicationRecord -->
<g id="node5" class="node"><title>ApplicationRecord</title>
<ellipse fill="none" stroke="black" cx="518" cy="-183" rx="77.0154" ry="18"/>
<text text-anchor="middle" x="518" y="-179.3" font-family="Times,serif" font-size="14.00">ApplicationRecord</text>
</g>
<!-- RepeatInfo -->
<g id="node8" class="node"><title>RepeatInfo</title>
<ellipse fill="none" stroke="black" cx="663" cy="-183" rx="50.0684" ry="18"/>
<text text-anchor="middle" x="663" y="-179.3" font-family="Times,serif" font-size="14.00">RepeatInfo</text>
</g>
</g>
</svg>
