<?xml version="1.0" encoding="UTF-8" standalone="no"?>
<!DOCTYPE svg PUBLIC "-//W3C//DTD SVG 1.1//EN"
 "http://www.w3.org/Graphics/SVG/1.1/DTD/svg11.dtd">
<!-- Generated by graphviz version 2.36.0 (20140111.2315)
 -->
<!-- Title: models_diagram Pages: 1 -->
<svg width="911pt" height="824pt"
 viewBox="0.00 0.00 911.00 824.00" xmlns="http://www.w3.org/2000/svg" xmlns:xlink="http://www.w3.org/1999/xlink">
<g id="graph0" class="graph" transform="scale(1 1) rotate(0) translate(4 820)">
<title>models_diagram</title>
<polygon fill="none" stroke="none" points="-4,4 -4,-820 907,-820 907,4 -4,4"/>
<!-- _diagram_info -->
<g id="node1" class="node"><title>_diagram_info</title>
<text text-anchor="start" x="8" y="-711.6" font-family="Times,serif" font-size="13.00">Models diagram</text>
<text text-anchor="start" x="8" y="-697.6" font-family="Times,serif" font-size="13.00">Date: Apr 20 2017 &#45; 04:25</text>
<text text-anchor="start" x="8" y="-683.6" font-family="Times,serif" font-size="13.00">Migration version: 20170414202612</text>
<text text-anchor="start" x="8" y="-669.6" font-family="Times,serif" font-size="13.00">Generated by RailRoady 1.5.2</text>
<text text-anchor="start" x="8" y="-655.6" font-family="Times,serif" font-size="13.00">http://railroady.prestonlee.com</text>
</g>
<!-- Parent -->
<g id="node2" class="node"><title>Parent</title>
<path fill="none" stroke="black" d="M244,-559C244,-559 420,-559 420,-559 426,-559 432,-565 432,-571 432,-571 432,-803 432,-803 432,-809 426,-815 420,-815 420,-815 244,-815 244,-815 238,-815 232,-809 232,-803 232,-803 232,-571 232,-571 232,-565 238,-559 244,-559"/>
<text text-anchor="middle" x="332" y="-799.8" font-family="Times,serif" font-size="14.00">Parent</text>
<polyline fill="none" stroke="black" points="232,-792 432,-792 "/>
<text text-anchor="start" x="240" y="-776.8" font-family="Times,serif" font-size="14.00">id :INTEGER</text>
<text text-anchor="start" x="240" y="-761.8" font-family="Times,serif" font-size="14.00">email :varchar</text>
<text text-anchor="start" x="240" y="-746.8" font-family="Times,serif" font-size="14.00">encrypted_password :varchar</text>
<text text-anchor="start" x="240" y="-731.8" font-family="Times,serif" font-size="14.00">reset_password_token :varchar</text>
<text text-anchor="start" x="240" y="-716.8" font-family="Times,serif" font-size="14.00">reset_password_sent_at :datetime</text>
<text text-anchor="start" x="240" y="-701.8" font-family="Times,serif" font-size="14.00">remember_created_at :datetime</text>
<text text-anchor="start" x="240" y="-686.8" font-family="Times,serif" font-size="14.00">sign_in_count :integer</text>
<text text-anchor="start" x="240" y="-671.8" font-family="Times,serif" font-size="14.00">current_sign_in_at :datetime</text>
<text text-anchor="start" x="240" y="-656.8" font-family="Times,serif" font-size="14.00">last_sign_in_at :datetime</text>
<text text-anchor="start" x="240" y="-641.8" font-family="Times,serif" font-size="14.00">current_sign_in_ip :varchar</text>
<text text-anchor="start" x="240" y="-626.8" font-family="Times,serif" font-size="14.00">last_sign_in_ip :varchar</text>
<text text-anchor="start" x="240" y="-611.8" font-family="Times,serif" font-size="14.00">created_at :datetime</text>
<text text-anchor="start" x="240" y="-596.8" font-family="Times,serif" font-size="14.00">updated_at :datetime</text>
<text text-anchor="start" x="240" y="-581.8" font-family="Times,serif" font-size="14.00">pincode :varchar(5)</text>
<text text-anchor="start" x="240" y="-566.8" font-family="Times,serif" font-size="14.00">avatar :varchar</text>
</g>
<!-- Child -->
<g id="node4" class="node"><title>Child</title>
<path fill="none" stroke="black" d="M112.5,-340C112.5,-340 219.5,-340 219.5,-340 225.5,-340 231.5,-346 231.5,-352 231.5,-352 231.5,-494 231.5,-494 231.5,-500 225.5,-506 219.5,-506 219.5,-506 112.5,-506 112.5,-506 106.5,-506 100.5,-500 100.5,-494 100.5,-494 100.5,-352 100.5,-352 100.5,-346 106.5,-340 112.5,-340"/>
<text text-anchor="middle" x="166" y="-490.8" font-family="Times,serif" font-size="14.00">Child</text>
<polyline fill="none" stroke="black" points="100.5,-483 231.5,-483 "/>
<text text-anchor="start" x="108.5" y="-467.8" font-family="Times,serif" font-size="14.00">id :INTEGER</text>
<text text-anchor="start" x="108.5" y="-452.8" font-family="Times,serif" font-size="14.00">parent_id :integer</text>
<text text-anchor="start" x="108.5" y="-437.8" font-family="Times,serif" font-size="14.00">name :varchar</text>
<text text-anchor="start" x="108.5" y="-422.8" font-family="Times,serif" font-size="14.00">frozen? :boolean</text>
<text text-anchor="start" x="108.5" y="-407.8" font-family="Times,serif" font-size="14.00">balance :integer</text>
<text text-anchor="start" x="108.5" y="-392.8" font-family="Times,serif" font-size="14.00">created_at :datetime</text>
<text text-anchor="start" x="108.5" y="-377.8" font-family="Times,serif" font-size="14.00">updated_at :datetime</text>
<text text-anchor="start" x="108.5" y="-362.8" font-family="Times,serif" font-size="14.00">childPin :varchar(5)</text>
<text text-anchor="start" x="108.5" y="-347.8" font-family="Times,serif" font-size="14.00">avatar :varchar</text>
</g>
<!-- Parent&#45;&gt;Child -->
<g id="edge1" class="edge"><title>Parent&#45;&gt;Child</title>
<path fill="none" stroke="#77ebd6" d="M246.921,-551.719C239.023,-539.253 231.15,-526.827 223.589,-514.893"/>
<ellipse fill="none" stroke="#77ebd6" cx="249.29" cy="-555.459" rx="4.00002" ry="4.00002"/>
<polygon fill="#77ebd6" stroke="#77ebd6" points="223.494,-514.743 221.943,-503.888 220.818,-510.52 218.142,-506.296 218.142,-506.296 218.142,-506.296 220.818,-510.52 214.34,-508.704 223.494,-514.743 223.494,-514.743"/>
</g>
<!-- Reward -->
<g id="node6" class="node"><title>Reward</title>
<path fill="none" stroke="black" d="M262,-325C262,-325 402,-325 402,-325 408,-325 414,-331 414,-337 414,-337 414,-509 414,-509 414,-515 408,-521 402,-521 402,-521 262,-521 262,-521 256,-521 250,-515 250,-509 250,-509 250,-337 250,-337 250,-331 256,-325 262,-325"/>
<text text-anchor="middle" x="332" y="-505.8" font-family="Times,serif" font-size="14.00">Reward</text>
<polyline fill="none" stroke="black" points="250,-498 414,-498 "/>
<text text-anchor="start" x="258" y="-482.8" font-family="Times,serif" font-size="14.00">id :INTEGER</text>
<text text-anchor="start" x="258" y="-467.8" font-family="Times,serif" font-size="14.00">cost :integer</text>
<text text-anchor="start" x="258" y="-452.8" font-family="Times,serif" font-size="14.00">auto_approve :boolean</text>
<text text-anchor="start" x="258" y="-437.8" font-family="Times,serif" font-size="14.00">parent_id :integer</text>
<text text-anchor="start" x="258" y="-422.8" font-family="Times,serif" font-size="14.00">created_at :datetime</text>
<text text-anchor="start" x="258" y="-407.8" font-family="Times,serif" font-size="14.00">updated_at :datetime</text>
<text text-anchor="start" x="258" y="-392.8" font-family="Times,serif" font-size="14.00">name :varchar</text>
<text text-anchor="start" x="258" y="-377.8" font-family="Times,serif" font-size="14.00">child_id :integer</text>
<text text-anchor="start" x="258" y="-362.8" font-family="Times,serif" font-size="14.00">redeemed :boolean</text>
<text text-anchor="start" x="258" y="-347.8" font-family="Times,serif" font-size="14.00">pending_approval :boolean</text>
<text text-anchor="start" x="258" y="-332.8" font-family="Times,serif" font-size="14.00">redeemed_at :datetime</text>
</g>
<!-- Parent&#45;&gt;Reward -->
<g id="edge3" class="edge"><title>Parent&#45;&gt;Reward</title>
<path fill="none" stroke="#5ec9a7" d="M332,-550.832C332,-544.284 332,-537.75 332,-531.295"/>
<ellipse fill="none" stroke="#5ec9a7" cx="332" cy="-554.837" rx="4" ry="4"/>
<polygon fill="#5ec9a7" stroke="#5ec9a7" points="332,-531.226 336.5,-521.226 332,-526.226 332,-521.226 332,-521.226 332,-521.226 332,-526.226 327.5,-521.226 332,-531.226 332,-531.226"/>
</g>
<!-- Chore -->
<g id="node7" class="node"><title>Chore</title>
<path fill="none" stroke="black" d="M234,-1C234,-1 374,-1 374,-1 380,-1 386,-7 386,-13 386,-13 386,-275 386,-275 386,-281 380,-287 374,-287 374,-287 234,-287 234,-287 228,-287 222,-281 222,-275 222,-275 222,-13 222,-13 222,-7 228,-1 234,-1"/>
<text text-anchor="middle" x="304" y="-271.8" font-family="Times,serif" font-size="14.00">Chore</text>
<polyline fill="none" stroke="black" points="222,-264 386,-264 "/>
<text text-anchor="start" x="230" y="-248.8" font-family="Times,serif" font-size="14.00">id :INTEGER</text>
<text text-anchor="start" x="230" y="-233.8" font-family="Times,serif" font-size="14.00">child_id :integer</text>
<text text-anchor="start" x="230" y="-218.8" font-family="Times,serif" font-size="14.00">coins :integer</text>
<text text-anchor="start" x="230" y="-203.8" font-family="Times,serif" font-size="14.00">name :varchar</text>
<text text-anchor="start" x="230" y="-188.8" font-family="Times,serif" font-size="14.00">description :text</text>
<text text-anchor="start" x="230" y="-173.8" font-family="Times,serif" font-size="14.00">created_at :datetime</text>
<text text-anchor="start" x="230" y="-158.8" font-family="Times,serif" font-size="14.00">updated_at :datetime</text>
<text text-anchor="start" x="230" y="-143.8" font-family="Times,serif" font-size="14.00">parent_id :integer</text>
<text text-anchor="start" x="230" y="-128.8" font-family="Times,serif" font-size="14.00">needs_approval :boolean</text>
<text text-anchor="start" x="230" y="-113.8" font-family="Times,serif" font-size="14.00">repeat_type :integer</text>
<text text-anchor="start" x="230" y="-98.8" font-family="Times,serif" font-size="14.00">repeat_data :integer(31)</text>
<text text-anchor="start" x="230" y="-83.8" font-family="Times,serif" font-size="14.00">due_date :datetime</text>
<text text-anchor="start" x="230" y="-68.8" font-family="Times,serif" font-size="14.00">completed :boolean</text>
<text text-anchor="start" x="230" y="-53.8" font-family="Times,serif" font-size="14.00">pending_approval :boolean</text>
<text text-anchor="start" x="230" y="-38.8" font-family="Times,serif" font-size="14.00">repeat_until :datetime</text>
<text text-anchor="start" x="230" y="-23.8" font-family="Times,serif" font-size="14.00">group_id :int</text>
<text text-anchor="start" x="230" y="-8.8" font-family="Times,serif" font-size="14.00">completed_at :datetime</text>
</g>
<!-- Parent&#45;&gt;Chore -->
<g id="edge2" class="edge"><title>Parent&#45;&gt;Chore</title>
<path fill="none" stroke="#0b57a2" d="M413.54,-551.066C417.267,-541.439 420.489,-531.701 423,-522 445.052,-436.808 448.447,-408.241 423,-324 415.855,-300.348 404.446,-276.956 391.456,-255.273"/>
<ellipse fill="none" stroke="#0b57a2" cx="411.94" cy="-555.048" rx="4.00001" ry="4.00001"/>
<polygon fill="#0b57a2" stroke="#0b57a2" points="391.443,-255.251 390.04,-244.375 388.824,-250.991 386.206,-246.731 386.206,-246.731 386.206,-246.731 388.824,-250.991 382.372,-249.088 391.443,-255.251 391.443,-255.251"/>
</g>
<!-- Notification -->
<g id="node3" class="node"><title>Notification</title>
<path fill="none" stroke="black" d="M462.5,-611.5C462.5,-611.5 569.5,-611.5 569.5,-611.5 575.5,-611.5 581.5,-617.5 581.5,-623.5 581.5,-623.5 581.5,-750.5 581.5,-750.5 581.5,-756.5 575.5,-762.5 569.5,-762.5 569.5,-762.5 462.5,-762.5 462.5,-762.5 456.5,-762.5 450.5,-756.5 450.5,-750.5 450.5,-750.5 450.5,-623.5 450.5,-623.5 450.5,-617.5 456.5,-611.5 462.5,-611.5"/>
<text text-anchor="middle" x="516" y="-747.3" font-family="Times,serif" font-size="14.00">Notification</text>
<polyline fill="none" stroke="black" points="450.5,-739.5 581.5,-739.5 "/>
<text text-anchor="start" x="458.5" y="-724.3" font-family="Times,serif" font-size="14.00">id :INTEGER</text>
<text text-anchor="start" x="458.5" y="-709.3" font-family="Times,serif" font-size="14.00">unread :boolean</text>
<text text-anchor="start" x="458.5" y="-694.3" font-family="Times,serif" font-size="14.00">object_type :integer</text>
<text text-anchor="start" x="458.5" y="-679.3" font-family="Times,serif" font-size="14.00">object_id :integer</text>
<text text-anchor="start" x="458.5" y="-664.3" font-family="Times,serif" font-size="14.00">user_id :integer</text>
<text text-anchor="start" x="458.5" y="-649.3" font-family="Times,serif" font-size="14.00">created_at :datetime</text>
<text text-anchor="start" x="458.5" y="-634.3" font-family="Times,serif" font-size="14.00">updated_at :datetime</text>
<text text-anchor="start" x="458.5" y="-619.3" font-family="Times,serif" font-size="14.00">user_type :integer</text>
</g>
<!-- Child&#45;&gt;Chore -->
<g id="edge4" class="edge"><title>Child&#45;&gt;Chore</title>
<path fill="none" stroke="#1572ba" d="M210.751,-332.174C216.479,-320.676 222.462,-308.667 228.513,-296.522"/>
<ellipse fill="none" stroke="#1572ba" cx="208.815" cy="-336.061" rx="4.00002" ry="4.00002"/>
<polygon fill="#1572ba" stroke="#1572ba" points="228.69,-296.166 237.177,-289.222 230.92,-291.69 233.149,-287.215 233.149,-287.215 233.149,-287.215 230.92,-291.69 229.121,-285.208 228.69,-296.166 228.69,-296.166"/>
</g>
<!-- ApplicationRecord -->
<g id="node5" class="node"><title>ApplicationRecord</title>
<ellipse fill="none" stroke="black" cx="677" cy="-687" rx="77.0154" ry="18"/>
<text text-anchor="middle" x="677" y="-683.3" font-family="Times,serif" font-size="14.00">ApplicationRecord</text>
</g>
<!-- RepeatInfo -->
<g id="node8" class="node"><title>RepeatInfo</title>
<path fill="none" stroke="black" d="M784.5,-626.5C784.5,-626.5 891.5,-626.5 891.5,-626.5 897.5,-626.5 903.5,-632.5 903.5,-638.5 903.5,-638.5 903.5,-735.5 903.5,-735.5 903.5,-741.5 897.5,-747.5 891.5,-747.5 891.5,-747.5 784.5,-747.5 784.5,-747.5 778.5,-747.5 772.5,-741.5 772.5,-735.5 772.5,-735.5 772.5,-638.5 772.5,-638.5 772.5,-632.5 778.5,-626.5 784.5,-626.5"/>
<text text-anchor="middle" x="838" y="-732.3" font-family="Times,serif" font-size="14.00">RepeatInfo</text>
<polyline fill="none" stroke="black" points="772.5,-724.5 903.5,-724.5 "/>
<text text-anchor="start" x="780.5" y="-709.3" font-family="Times,serif" font-size="14.00">id :INTEGER</text>
<text text-anchor="start" x="780.5" y="-694.3" font-family="Times,serif" font-size="14.00">repeat_type :integer</text>
<text text-anchor="start" x="780.5" y="-679.3" font-family="Times,serif" font-size="14.00">repeat_data :integer</text>
<text text-anchor="start" x="780.5" y="-664.3" font-family="Times,serif" font-size="14.00">chore_id :integer</text>
<text text-anchor="start" x="780.5" y="-649.3" font-family="Times,serif" font-size="14.00">created_at :datetime</text>
<text text-anchor="start" x="780.5" y="-634.3" font-family="Times,serif" font-size="14.00">updated_at :datetime</text>
</g>
</g>
</svg>
